<svg width="1222" height="22" viewBox="0 0 1222 22" fill="none" xmlns="http://www.w3.org/2000/svg">
<path d="M0.333333 11C0.333333 16.891 5.10896 21.6667 11 21.6667C16.891 21.6667 21.6667 16.891 21.6667 11C21.6667 5.10896 16.891 0.333333 11 0.333333C5.10896 0.333333 0.333333 5.10896 0.333333 11ZM1200.33 11C1200.33 16.891 1205.11 21.6667 1211 21.6667C1216.89 21.6667 1221.67 16.891 1221.67 11C1221.67 5.10896 1216.89 0.333333 1211 0.333333C1205.11 0.333333 1200.33 5.10896 1200.33 11ZM11 13H1211V9H11V13Z" fill="#F7C04B"/>
</svg>
