<svg width="1262" height="22" viewBox="0 0 1262 22" fill="none" xmlns="http://www.w3.org/2000/svg">
<path d="M0.333333 11C0.333333 16.891 5.10896 21.6667 11 21.6667C16.891 21.6667 21.6667 16.891 21.6667 11C21.6667 5.10896 16.891 0.333333 11 0.333333C5.10896 0.333333 0.333333 5.10896 0.333333 11ZM1240.33 11C1240.33 16.891 1245.11 21.6667 1251 21.6667C1256.89 21.6667 1261.67 16.891 1261.67 11C1261.67 5.10896 1256.89 0.333333 1251 0.333333C1245.11 0.333333 1240.33 5.10896 1240.33 11ZM11 13L1251 13V9L11 9V13Z" fill="#3F487F"/>
</svg>
